Coordinates
version=1
nRows=14
nColumns=40
inDegrees=yes

Units are S.I. units (second, meters, Newtons, ...)
Angles are in degrees.

endheader
time	pelvis_tilt	pelvis_list	pelvis_rotation	pelvis_tx	pelvis_ty	pelvis_tz	hip_flexion_r	hip_adduction_r	hip_rotation_r	knee_angle_r	knee_angle_r_beta	ankle_angle_r	subtalar_angle_r	mtp_angle_r	hip_flexion_l	hip_adduction_l	hip_rotation_l	knee_angle_l	knee_angle_l_beta	ankle_angle_l	subtalar_angle_l	mtp_angle_l	lumbar_extension	lumbar_bending	lumbar_rotation	arm_flex_r	arm_add_r	arm_rot_r	elbow_flex_r	pro_sup_r	wrist_flex_r	wrist_dev_r	arm_flex_l	arm_add_l	arm_rot_l	elbow_flex_l	pro_sup_l	wrist_flex_l	wrist_dev_l
     18.58500000	     -5.12983088	     -3.69424367	     -3.63125938	      0.95956650	      0.90828553	      0.42976963	     19.31291346	     -7.43662527	     -5.07753295	     66.12221082	     66.12221082	     -2.36697566	    -18.87722500	      5.30078712	     20.83224128	     -0.70252714	     -0.59983998	     35.76956592	     35.76956592	     23.39173261	    -18.85377140	     13.67954538	    -10.92996352	      6.62588901	      3.19615938	     21.47904145	    -14.11644178	    -19.34358243	     26.12974528	     47.36034908	      0.00000000	      0.00000000	     18.69852892	    -16.27388140	      9.14632145	     47.70815374	     45.88448138	      0.00000000	      0.00000000
     18.60457143	     -4.83646579	     -3.56140064	     -4.12257492	      0.95942237	      0.90747305	      0.42874931	     21.40567810	     -7.52624500	     -4.45770512	     68.66969418	     68.66969418	     -0.94936412	    -19.18399167	     11.34686700	     20.14609170	     -0.52961610	     -0.99158009	     35.97132338	     35.97132338	     24.02623695	    -18.90692744	     13.70534070	    -11.28342599	      6.92452752	      3.06643412	     18.08674341	    -13.86099341	    -20.47617484	     24.55829765	     47.46514779	      0.00000000	      0.00000000	     20.17185397	    -16.71283651	      8.65758607	     48.66859830	     46.00776436	      0.00000000	      0.00000000
     18.62414286	     -4.59750131	     -3.42605915	     -4.65177097	      0.95924176	      0.90733902	      0.42812964	     23.32645992	     -7.52688070	     -3.94428102	     70.31719218	     70.31719218	      0.54736914	    -19.37040853	     15.07068049	     19.32515346	     -0.38590470	     -1.45129553	     35.79163730	     35.79163730	     24.44122896	    -18.93055299	     13.61165823	    -11.59760126	      7.19425403	      2.95090268	     14.64723315	    -13.57386986	    -21.31950565	     23.17367380	     47.55261688	      0.00000000	      0.00000000	     21.54285609	    -17.12223114	      7.92584060	     49.78661030	     46.13855927	      0.00000000	      0.00000000
     18.64371429	     -4.45960784	     -3.18550988	     -5.19847076	      0.95890627	      0.90777808	      0.42784431	     25.14245061	     -7.54669595	     -3.50455360	     71.06301490	     71.06301490	      1.79679160	    -19.47454859	     15.45575900	     18.43511299	     -0.13204314	     -1.90436630	     35.23748746	     35.23748746	     24.71732921	    -18.92917473	     13.58778830	    -11.80572121	      7.34565242	      2.54787750	     11.51623287	    -13.17149899	    -21.52342225	     21.88630040	     47.59577808	      0.00000000	      0.00000000	     22.80559737	    -17.76697920	      7.36785185	     50.64807410	     46.21602331	      0.00000000	      0.00000000
     18.66328571	     -4.35230126	     -3.12692416	     -5.82569164	      0.95848811	      0.90913719	      0.42828651	     26.79717656	     -7.11244281	     -3.09201080	     70.91763085	     70.91763085	      3.60856229	    -19.50818015	     16.64798805	     17.38965773	     -0.15838173	     -2.50339933	     34.32488650	     34.32488650	     24.69281180	    -18.91569025	     13.52426252	    -12.10049319	      7.59420395	      2.68864029	      8.11077450	    -12.94269760	    -21.85652747	     20.66625289	     47.64911312	      0.00000000	      0.00000000	     24.13760963	    -18.12129120	      6.47765281	     52.07683596	     46.33259703	      0.00000000	      0.00000000
     18.68285714	     -4.36747777	     -3.13816845	     -6.46427865	      0.95788022	      0.91104438	      0.42926189	     28.34315550	     -6.37220911	     -2.67623194	     69.83003366	     69.83003366	      5.57080990	    -19.48768405	     17.26564269	     16.31865428	     -0.28250796	     -3.08481327	     33.10928680	     33.10928680	     24.51516790	    -18.84094603	     13.37898018	    -12.28366674	      7.92548422	      2.51202710	      5.03184529	    -12.54753376	    -22.19114112	     19.81979835	     47.69035571	      0.00000000	      0.00000000	     25.24745336	    -18.70879227	      5.45383425	     53.34845481	     46.45332928	      0.00000000	      0.00000000
     18.70242857	     -4.56629452	     -3.28335795	     -7.11897185	      0.95708777	      0.91328277	      0.43083964	     29.77760133	     -5.26186095	     -2.27466452	     67.75600471	     67.75600471	      7.50366699	    -19.42383062	     17.55373372	     15.32615805	     -0.62595460	     -3.73414724	     31.66060504	     31.66060504	     23.87272035	    -18.72100750	     12.25875812	    -12.35977941	      8.37093595	      2.13163400	      1.98912059	    -12.01608054	    -23.13696649	     20.02846408	     47.75432827	      0.00000000	      0.00000000	     25.76289180	    -19.19719827	      2.90547256	     55.45095998	     46.72214078	      0.00000000	      0.00000000
     18.72200000	     -4.77835930	     -3.41219883	     -7.81885405	      0.95621230	      0.91591184	      0.43283158	     30.81647518	     -4.11462712	     -1.88713839	     64.56429860	     64.56429860	      8.36733999	    -19.27853508	     14.58056716	     14.19145002	     -0.93955122	     -4.40199779	     29.91344991	     29.91344991	     23.21263602	    -18.59126870	     11.57967713	    -12.43853319	      8.74155513	      1.87882829	     -0.64193513	    -11.60864545	    -23.75909327	     19.55038688	     47.82690724	      0.00000000	      0.00000000	     26.51697811	    -19.78752108	      1.14105626	     57.21576366	     46.91639407	      0.00000000	      0.00000000
     18.74157143	     -5.10783844	     -3.54421104	     -8.55117122	      0.95518731	      0.91851614	      0.43524951	     31.60382473	     -2.90087286	     -1.47435444	     60.40508421	     60.40508421	      8.65168236	    -18.96370892	     10.70656273	     13.14642102	     -1.27756081	     -5.09941539	     28.10235066	     28.10235066	     22.57844940	    -18.40346208	     11.17253144	    -12.45181405	      9.07174674	      2.04325131	     -3.29179371	    -11.27014429	    -24.09901314	     19.09505355	     47.86580065	      0.00000000	      0.00000000	     27.43512682	    -20.22540061	     -0.13289722	     59.21476044	     47.06234401	      0.00000000	      0.00000000
     18.76114286	     -5.42016449	     -3.74550579	     -9.25197271	      0.95425246	      0.92097586	      0.43797660	     31.77620949	     -1.80130751	     -1.33362520	     55.05693178	     55.05693178	      7.24476481	    -18.51257886	      2.43516460	     12.01671318	     -1.68072499	     -5.77748416	     26.19891103	     26.19891103	     21.75304470	    -18.21793007	     10.20932690	    -12.48434930	      9.47509937	      1.60650425	     -5.49682114	    -10.92748771	    -24.50563767	     19.41907410	     47.88492832	      0.00000000	      0.00000000	     27.86863240	    -21.07678682	     -1.97577747	     61.32113565	     47.25316543	      0.00000000	      0.00000000
     18.78071429	     -5.76406730	     -3.88873239	     -9.96054159	      0.95333481	      0.92300972	      0.44098851	     31.67413034	     -0.78892078	     -1.17809750	     49.15383907	     49.15383907	      6.09630495	    -17.39906559	     -3.60662266	     10.96650579	     -2.01803098	     -6.45714697	     24.40106567	     24.40106567	     21.15179126	    -17.96560566	      9.72188039	    -12.47327736	      9.77201770	      1.50839491	     -7.51850033	    -10.66339030	    -24.60816247	     19.35554251	     47.88818271	      0.00000000	      0.00000000	     28.64624475	    -21.78745944	     -3.19614279	     63.15499748	     47.39155766	      0.00000000	      0.00000000
     18.80028571	     -6.09015895	     -3.98092840	    -10.65442197	      0.95251482	      0.92443190	      0.44424356	     31.40066951	      0.04324246	     -1.18790054	     43.28875538	     43.28875538	      6.49848993	    -14.26492411	     -4.16138248	     10.00181715	     -2.29988671	     -7.13834023	     22.84140288	     22.84140288	     20.90368536	    -17.62568207	      9.78546748	    -12.44793568	      9.97268235	      1.64954453	     -9.29844117	    -10.42394463	    -24.67111556	     19.02218653	     47.89120626	      0.00000000	      0.00000000	     29.78969587	    -22.42689609	     -3.81414155	     64.52811656	     47.46719231	      0.00000000	      0.00000000
     18.81985714	     -6.40132140	     -3.98620451	    -11.29108522	      0.95203669	      0.92505247	      0.44756744	     30.77237466	      0.54944611	     -1.68716858	     37.17499142	     37.17499142	      6.34277404	    -10.21035855	     -5.41497613	      9.07686904	     -2.47048276	     -7.77946422	     21.37972216	     21.37972216	     20.31784910	    -17.44277370	      8.65084438	    -12.40774973	     10.10733937	      1.54415041	    -11.07380334	    -10.19514428	    -24.83159596	     19.91125193	     47.84365657	      0.00000000	      0.00000000	     30.25791747	    -23.06139815	     -5.30903620	     67.07608215	     47.62565689	      0.00000000	      0.00000000
     18.83942857	     -6.61052828	     -3.89599073	    -11.89861893	      0.95193959	      0.92501995	      0.45112192	     29.96639451	      0.90933211	     -2.34631588	     31.48516994	     31.48516994	      6.41444793	     -5.58253937	     -4.49652319	      8.13878843	     -2.53034945	     -8.47850803	     20.15099196	     20.15099196	     20.12220090	    -17.11656403	      7.98876164	    -12.37444876	     10.08509580	      1.64738524	    -12.42060136	     -9.99784548	    -24.81306512	     20.10054060	     47.81253975	      0.00000000	      0.00000000	     31.18591716	    -23.61372125	     -6.17359591	     68.77894291	     47.72382936	      0.00000000	      0.00000000
